<svg width="24" height="24" viewBox="0 0 29 29" fill="none" xmlns="http://www.w3.org/2000/svg">
<path d="M8.2476 0H20.1924C24.7428 0 28.44 3.6972 28.44 8.2476V20.1924C28.44 22.3798 27.5711 24.4776 26.0243 26.0243C24.4776 27.5711 22.3798 28.44 20.1924 28.44H8.2476C3.6972 28.44 0 24.7428 0 20.1924V8.2476C0 6.0602 0.868941 3.96239 2.41567 2.41567C3.96239 0.868941 6.0602 0 8.2476 0ZM7.9632 2.844C6.6055 2.844 5.30342 3.38334 4.34338 4.34338C3.38334 5.30342 2.844 6.6055 2.844 7.9632V20.4768C2.844 23.3066 5.13342 25.596 7.9632 25.596H20.4768C21.8345 25.596 23.1366 25.0567 24.0966 24.0966C25.0567 23.1366 25.596 21.8345 25.596 20.4768V7.9632C25.596 5.13342 23.3066 2.844 20.4768 2.844H7.9632ZM21.6855 4.977C22.1569 4.977 22.609 5.16427 22.9424 5.49762C23.2757 5.83096 23.463 6.28308 23.463 6.7545C23.463 7.22592 23.2757 7.67804 22.9424 8.01138C22.609 8.34473 22.1569 8.532 21.6855 8.532C21.2141 8.532 20.762 8.34473 20.4286 8.01138C20.0953 7.67804 19.908 7.22592 19.908 6.7545C19.908 6.28308 20.0953 5.83096 20.4286 5.49762C20.762 5.16427 21.2141 4.977 21.6855 4.977ZM14.22 7.11C16.1057 7.11 17.9141 7.85909 19.2475 9.19247C20.5809 10.5259 21.33 12.3343 21.33 14.22C21.33 16.1057 20.5809 17.9141 19.2475 19.2475C17.9141 20.5809 16.1057 21.33 14.22 21.33C12.3343 21.33 10.5259 20.5809 9.19247 19.2475C7.85909 17.9141 7.11 16.1057 7.11 14.22C7.11 12.3343 7.85909 10.5259 9.19247 9.19247C10.5259 7.85909 12.3343 7.11 14.22 7.11ZM14.22 9.954C13.0886 9.954 12.0035 10.4035 11.2035 11.2035C10.4035 12.0035 9.954 13.0886 9.954 14.22C9.954 15.3514 10.4035 16.4365 11.2035 17.2365C12.0035 18.0365 13.0886 18.486 14.22 18.486C15.3514 18.486 16.4365 18.0365 17.2365 17.2365C18.0365 16.4365 18.486 15.3514 18.486 14.22C18.486 13.0886 18.0365 12.0035 17.2365 11.2035C16.4365 10.4035 15.3514 9.954 14.22 9.954Z" fill="#262769"/>
</svg>


