<svg width="33" height="33" viewBox="0 0 29 29" fill="none" xmlns="http://www.w3.org/2000/svg">
<path fill-rule="evenodd" clip-rule="evenodd" d="M4.74 13.6276C4.74 9.56656 8.77255 5.92505 14.22 5.92505C19.6674 5.92505 23.7 9.56656 23.7 13.6276C23.7 15.6243 22.6169 17.5535 20.6771 19.3357C19.0536 20.8264 16.9076 22.137 14.5577 23.2012C14.4896 22.6911 14.3038 22.2039 14.015 21.778C13.5848 21.1677 12.9248 20.7506 12.0538 20.5977C7.62547 19.8251 4.74 17.0641 4.74 13.6276ZM14.22 3.55505C7.88736 3.55505 2.37 7.87201 2.37 13.6276C2.37 18.652 6.57556 22.0482 11.6462 22.9322C12.0811 23.008 12.1901 23.2711 12.2304 23.6846C12.2861 24.2369 12.1652 24.827 12.4117 25.3436C12.7067 25.9622 13.4343 26.2383 14.0671 25.9847C17.1138 24.7666 20.0668 23.1135 22.2792 21.0812C24.4868 19.0549 26.07 16.5391 26.07 13.6276C26.07 7.87201 20.5526 3.55505 14.22 3.55505ZM14.5376 11.0917C14.3817 10.9047 14.1719 10.7703 13.9369 10.7067C13.7019 10.6431 13.4531 10.6535 13.2241 10.7363C12.9952 10.8192 12.7974 10.9706 12.6575 11.1698C12.5177 11.3691 12.4426 11.6066 12.4425 11.8501V15.4051C12.4425 15.7193 12.5673 16.0207 12.7896 16.243C13.0118 16.4652 13.3132 16.5901 13.6275 16.5901C13.9418 16.5901 14.2432 16.4652 14.4654 16.243C14.6876 16.0207 14.8125 15.7193 14.8125 15.4051V15.123L15.6799 16.1635C15.8358 16.3504 16.0455 16.4848 16.2805 16.5484C16.5156 16.612 16.7644 16.6016 16.9933 16.5188C17.2223 16.4359 17.4201 16.2845 17.5599 16.0853C17.6998 15.886 17.7749 15.6485 17.775 15.4051V11.8501C17.775 11.5358 17.6501 11.2344 17.4279 11.0121C17.2057 10.7899 16.9043 10.6651 16.59 10.6651C16.2757 10.6651 15.9743 10.7899 15.7521 11.0121C15.5298 11.2344 15.405 11.5358 15.405 11.8501V12.1321L14.5376 11.0917ZM8.29499 11.8501C8.29499 11.5358 8.17015 11.2344 7.94792 11.0121C7.72569 10.7899 7.42428 10.6651 7.10999 10.6651C6.79571 10.6651 6.4943 10.7899 6.27207 11.0121C6.04984 11.2344 5.92499 11.5358 5.92499 11.8501V15.4051C5.92499 15.7193 6.04984 16.0207 6.27207 16.243C6.4943 16.4652 6.79571 16.5901 7.10999 16.5901H8.29499C8.60928 16.5901 8.91069 16.4652 9.13292 16.243C9.35515 16.0207 9.47999 15.7193 9.47999 15.4051C9.47999 15.0908 9.35515 14.7894 9.13292 14.5671C8.91069 14.3449 8.60928 14.2201 8.29499 14.2201V11.8501ZM10.665 10.6651C10.9793 10.6651 11.2807 10.7899 11.5029 11.0121C11.7251 11.2344 11.85 11.5358 11.85 11.8501V15.4051C11.85 15.7193 11.7251 16.0207 11.5029 16.243C11.2807 16.4652 10.9793 16.5901 10.665 16.5901C10.3507 16.5901 10.0493 16.4652 9.82707 16.243C9.60484 16.0207 9.47999 15.7193 9.47999 15.4051V11.8501C9.47999 11.5358 9.60484 11.2344 9.82707 11.0121C10.0493 10.7899 10.3507 10.6651 10.665 10.6651ZM21.33 13.0351H21.1712C21.2758 13.215 21.3309 13.4194 21.3309 13.6276C21.3309 13.8357 21.2758 14.0401 21.1712 14.2201H21.33C21.6443 14.2201 21.9457 14.3449 22.1679 14.5671C22.3901 14.7894 22.515 15.0908 22.515 15.4051C22.515 15.7193 22.3901 16.0207 22.1679 16.243C21.9457 16.4652 21.6443 16.5901 21.33 16.5901H19.5525C19.2382 16.5901 18.9368 16.4652 18.7146 16.243C18.4923 16.0207 18.3675 15.7193 18.3675 15.4051V11.8501C18.3675 11.5358 18.4923 11.2344 18.7146 11.0121C18.9368 10.7899 19.2382 10.6651 19.5525 10.6651H21.33C21.6443 10.6651 21.9457 10.7899 22.1679 11.0121C22.3901 11.2344 22.515 11.5358 22.515 11.8501C22.515 12.1643 22.3901 12.4657 22.1679 12.688C21.9457 12.9102 21.6443 13.0351 21.33 13.0351Z" fill="#262769"/>
</svg>

