<svg xmlns="http://www.w3.org/2000/svg" width="24" height="24" viewBox="0 0 24 24"><path fill="white" d="M12 12q.825 0 1.413-.588T14 10q0-.825-.588-1.413T12 8q-.825 0-1.413.588T10 10q0 .825.588 1.413T12 12Zm0 7.35q3.05-2.8 4.525-5.088T18 10.2q0-2.725-1.738-4.462T12 4Q9.475 4 7.737 5.738T6 10.2q0 1.775 1.475 4.063T12 19.35Zm0 2.275q-.2 0-.4-.075t-.35-.2Q7.6 18.125 5.8 15.362T4 10.2q0-3.75 2.413-5.975T12 2q3.175 0 5.588 2.225T20 10.2q0 2.4-1.8 5.163t-5.45 5.987q-.15.125-.35.2t-.4.075ZM12 10.2Z"/></svg>