<svg width="36" height="25" viewBox="0 0 36 25" fill="none" xmlns="http://www.w3.org/2000/svg">
    <path d="M33.1522 0H3.15222C2.48918 0 1.8533 0.263392 1.38445 0.732233C0.915614 1.20107 0.652222 1.83696 0.652222 2.5V22.5C0.652222 23.163 0.915614 23.7989 1.38445 24.2678C1.8533 24.7366 2.48918 25 3.15222 25H33.1522C33.8153 25 34.4511 24.7366 34.92 24.2678C35.3888 23.7989 35.6522 23.163 35.6522 22.5V2.5C35.6522 1.83696 35.3888 1.20107 34.92 0.732233C34.4511 0.263392 33.8153 0 33.1522 0ZM30.4022 2.5L18.1522 10.975L5.90222 2.5H30.4022ZM3.15222 22.5V3.6375L17.4397 13.525C17.649 13.6702 17.8976 13.7479 18.1522 13.7479C18.4069 13.7479 18.6555 13.6702 18.8647 13.525L33.1522 3.6375V22.5H3.15222Z" fill="black"/>
</svg>