<svg width="28" height="28" viewBox="0 0 28 28" fill="none" xmlns="http://www.w3.org/2000/svg">
<path d="M23.2812 2.60938H4.71875C4.15931 2.60938 3.62278 2.83161 3.2272 3.2272C2.83161 3.62278 2.60938 4.15931 2.60938 4.71875V23.2812C2.60938 23.8407 2.83161 24.3772 3.2272 24.7728C3.62278 25.1684 4.15931 25.3906 4.71875 25.3906H23.2812C23.8407 25.3906 24.3772 25.1684 24.7728 24.7728C25.1684 24.3772 25.3906 23.8407 25.3906 23.2812V4.71875C25.3906 4.15931 25.1684 3.62278 24.7728 3.2272C24.3772 2.83161 23.8407 2.60938 23.2812 2.60938ZM22.8594 22.8594H5.14062V5.14062H22.8594V22.8594ZM12.3125 19.0625V13.5781C12.3127 13.3151 12.3949 13.0587 12.5476 12.8445C12.7003 12.6304 12.9159 12.4691 13.1645 12.3832C13.4131 12.2972 13.6823 12.2908 13.9347 12.3649C14.187 12.439 14.41 12.5899 14.5727 12.7966C15.2155 12.4597 15.9344 12.2942 16.6599 12.3164C17.3853 12.3385 18.0928 12.5474 18.7139 12.9229C19.335 13.2984 19.8487 13.8278 20.2054 14.4599C20.5621 15.092 20.7497 15.8055 20.75 16.5312V19.0625C20.75 19.3982 20.6167 19.7201 20.3793 19.9574C20.142 20.1948 19.82 20.3281 19.4844 20.3281C19.1487 20.3281 18.8268 20.1948 18.5894 19.9574C18.3521 19.7201 18.2188 19.3982 18.2188 19.0625V16.5312C18.2188 16.0837 18.041 15.6545 17.7245 15.338C17.408 15.0215 16.9788 14.8438 16.5312 14.8438C16.0837 14.8438 15.6545 15.0215 15.338 15.338C15.0215 15.6545 14.8438 16.0837 14.8438 16.5312V19.0625C14.8438 19.3982 14.7104 19.7201 14.4731 19.9574C14.2357 20.1948 13.9138 20.3281 13.5781 20.3281C13.2425 20.3281 12.9205 20.1948 12.6832 19.9574C12.4458 19.7201 12.3125 19.3982 12.3125 19.0625ZM10.625 13.5781V19.0625C10.625 19.3982 10.4917 19.7201 10.2543 19.9574C10.017 20.1948 9.69504 20.3281 9.35938 20.3281C9.02371 20.3281 8.70179 20.1948 8.46444 19.9574C8.22709 19.7201 8.09375 19.3982 8.09375 19.0625V13.5781C8.09375 13.2425 8.22709 12.9205 8.46444 12.6832C8.70179 12.4458 9.02371 12.3125 9.35938 12.3125C9.69504 12.3125 10.017 12.4458 10.2543 12.6832C10.4917 12.9205 10.625 13.2425 10.625 13.5781ZM7.67188 8.9375C7.67188 8.60374 7.77085 8.27748 7.95627 7.99998C8.1417 7.72247 8.40525 7.50618 8.7136 7.37845C9.02195 7.25073 9.36125 7.21731 9.68859 7.28242C10.0159 7.34754 10.3166 7.50826 10.5526 7.74426C10.7886 7.98026 10.9493 8.28094 11.0145 8.60828C11.0796 8.93563 11.0461 9.27493 10.9184 9.58328C10.7907 9.89163 10.5744 10.1552 10.2969 10.3406C10.0194 10.526 9.69313 10.625 9.35938 10.625C8.91182 10.625 8.4826 10.4472 8.16613 10.1307C7.84967 9.81427 7.67188 9.38505 7.67188 8.9375Z" fill="white"/>
</svg>
