<svg width="31" height="31" viewBox="0 0 31 31" fill="none" xmlns="http://www.w3.org/2000/svg">
    <path d="M26.2272 4.86508C24.852 3.47597 23.214 2.37459 21.4087 1.62516C19.6034 0.87574 17.6669 0.49328 15.7123 0.500089C7.52227 0.500089 0.847295 7.17507 0.847295 15.365C0.847295 17.99 1.53729 20.54 2.82729 22.79L0.727295 30.5L8.60227 28.43C10.7773 29.615 13.2223 30.245 15.7123 30.245C23.9022 30.245 30.5772 23.57 30.5772 15.38C30.5772 11.4051 29.0322 7.67007 26.2272 4.86508ZM15.7123 27.725C13.4923 27.725 11.3173 27.125 9.41227 26L8.96227 25.73L4.28228 26.96L5.52728 22.4L5.22728 21.935C3.9939 19.9655 3.339 17.6889 3.33729 15.365C3.33729 8.55507 8.88727 3.00508 15.6973 3.00508C18.9972 3.00508 22.1022 4.29508 24.4272 6.63507C25.5784 7.78101 26.4908 9.14406 27.1113 10.6452C27.7318 12.1463 28.0483 13.7557 28.0422 15.38C28.0722 22.19 22.5222 27.725 15.7123 27.725ZM22.4922 18.485C22.1172 18.305 20.2872 17.405 19.9572 17.27C19.6122 17.15 19.3722 17.09 19.1172 17.45C18.8622 17.825 18.1572 18.665 17.9472 18.905C17.7372 19.16 17.5122 19.19 17.1372 18.995C16.7622 18.815 15.5623 18.41 14.1523 17.15C13.0423 16.16 12.3073 14.945 12.0823 14.57C11.8723 14.195 12.0523 14 12.2473 13.805C12.4123 13.64 12.6223 13.3701 12.8023 13.1601C12.9823 12.9501 13.0573 12.7851 13.1773 12.5451C13.2973 12.2901 13.2373 12.0801 13.1473 11.9001C13.0573 11.7201 12.3073 9.89006 12.0073 9.14006C11.7073 8.42007 11.3923 8.51007 11.1673 8.49507H10.4473C10.1923 8.49507 9.80227 8.58507 9.45727 8.96006C9.12727 9.33506 8.16727 10.2351 8.16727 12.0651C8.16727 13.8951 9.50227 15.665 9.68227 15.905C9.86227 16.16 12.3073 19.91 16.0273 21.515C16.9122 21.905 17.6022 22.13 18.1422 22.295C19.0272 22.58 19.8372 22.535 20.4822 22.445C21.2022 22.34 22.6872 21.545 22.9872 20.675C23.3022 19.805 23.3022 19.07 23.1972 18.905C23.0922 18.74 22.8672 18.665 22.4922 18.485Z" fill="black"/>
</svg>